# xmcd
#
# Track frame offsets: 
#        150
#        13244
#        27656
#        46044
#        60388
#        74642
#        87029
#        101048
#        113147
#        127763
#        143180
#        156668
#        171308
#        184055
#        198608
#        211608
#        226130
#        241998
#        253830
#        267825
#        282112
#        295302
#        306323
#        315624
#        329601
#        343706
#
# Disc length: 4755 seconds
#
# Revision: 0
# Processed by: cddbd v1.5.2PL0 Copyright (c) Steve Scherf et al.
# Submitted via: ExactAudioCopyFreeDBPlugin 1.0
#
DISCID=8912911a
DTITLE=Don Williams  - Listen To The Radio (Vinyl)
DYEAR=1975
DGENRE=Country
TTITLE0=Let A Way To Go
TTITLE1=Don´t Stop Loving Me Now
TTITLE2=Only Love
TTITLE3=A Gentleman´s Wife
TTITLE4=I´ll Be Home And Satisfied
TTITLE5=Don´t You Just Believe
TTITLE6=Fool, Fool Heart
TTITLE7=He´s Just A Old Story
TTITLE8=I Can´t GetTo You From Here
TTITLE9=Gypsy Woman
TTITLE10=I Would´t Live if You Don´t Love Me
TTITLE11=If Hollywood Don´t Need You
TTITLE12=If She Just Helps Me Get Over You
TTITLE13=Listen To The Radio
TTITLE14=Mistakes
TTITLE15=She´s In Love With A Rodeo Man
TTITLE16=Standing In A Sea Of Teardrops
TTITLE17=You´re All I Need
TTITLE18=We Should Be Together
TTITLE19=Hello Blues
TTITLE20=Help Yourselves To Each Other
TTITLE21=Everly Brothers - Dream Dream
TTITLE22=Everly Brothers - Crying in The Rain
TTITLE23=Everly Brothers - Eboney Eyes
TTITLE24=Simon and Garfunkel - The Sound Of Silence
TTITLE25=Simon and Garfunkel - I Am A Rock
EXTD=
EXTT0=
EXTT1=
EXTT2=
EXTT3=
EXTT4=
EXTT5=
EXTT6=
EXTT7=
EXTT8=
EXTT9=
EXTT10=
EXTT11=
EXTT12=
EXTT13=
EXTT14=
EXTT15=
EXTT16=
EXTT17=
EXTT18=
EXTT19=
EXTT20=
EXTT21=
EXTT22=
EXTT23=
EXTT24=
EXTT25=
PLAYORDER=
